<svg xmlns="http://www.w3.org/2000/svg" xmlns:xlink="http://www.w3.org/1999/xlink" viewBox="0,0,256,256" width="48px" height="48px"><g fill="#ffffff" fill-rule="nonzero" stroke="none" stroke-width="1" stroke-linecap="butt" stroke-linejoin="miter" stroke-miterlimit="10" stroke-dasharray="" stroke-dashoffset="0" font-family="none" font-weight="none" font-size="none" text-anchor="none" style="mix-blend-mode: normal"><g transform="scale(5.33333,5.33333)"><path d="M24,5c-10.98386,0 -20,8.47799 -20,19c0,5.39129 2.436,10.20861 6.21484,13.65234l-0.07227,3.51758c-0.05567,2.80794 3.12774,4.68345 5.55664,3.27344l3.57813,-2.07617c1.51888,0.35529 3.07801,0.63281 4.72266,0.63281c10.98386,0 20,-8.47799 20,-19c0,-10.52201 -9.01614,-19 -20,-19zM24,8c9.45014,0 17,7.19201 17,16c0,8.80799 -7.54986,16 -17,16c-1.61375,0 -3.17206,-0.22509 -4.66406,-0.625c-0.38509,-0.10345 -0.79551,-0.04934 -1.14063,0.15039l-4.00195,2.32422c-0.53687,0.31206 -1.0631,0.0022 -1.05078,-0.61914l0.08398,-4.13281c0.00874,-0.45327 -0.18797,-0.88619 -0.53516,-1.17773c-3.50187,-2.94503 -5.69141,-7.17999 -5.69141,-11.91992c0,-8.80799 7.54986,-16 17,-16zM34.07422,18.10742c-0.25437,-0.04625 -0.52636,0.00311 -0.75586,0.16211l-6.61523,4.58203l-3.45312,-3.03711l-0.24219,-0.21289l-0.13281,-0.10937c-1.034,-0.78 -2.50516,-0.57306 -3.28516,0.46094l-6.27148,8.31641l-0.01953,0.02344c-0.255,0.339 -0.27744,0.81659 -0.02344,1.18359c0.318,0.458 0.94725,0.57191 1.40625,0.25391l6.61523,-4.58203l3.45313,3.03906l0.24219,0.21289l0.13281,0.10742c1.034,0.78 2.50516,0.57502 3.28516,-0.45898l6.27148,-8.31641l0.01953,-0.02539c0.255,-0.339 0.27744,-0.81464 0.02344,-1.18164c-0.159,-0.229 -0.39601,-0.37172 -0.65039,-0.41797z"></path></g></g></svg>